# xmcd CD database file
#
# Track frame offsets:
#	150
#	14472
#	28929
#	39711
#	55704
#	76680
#	89596
#	103479
#	119974
#	134667
#	150606
#	166096
#	185502
#	201060
#	213805
#	231385
#	251577
#	264210
#	279861
#	295749
#
# Disc length: 4203 seconds
#
# Revision: 0
# Processed by: cddbd v1.4PL0 Copyright (c) Steve Scherf et al.
# Submitted via: CDex 1.50beta9
#
DISCID=20106914
DTITLE=Joan Baez - Country Music Album
DYEAR=1987
DGENRE=Country
TTITLE0=The night they drove old dixie down
TTITLE1=Brand new Tennessee Waltz
TTITLE2=Outside the Nahville city limits
TTITLE3=Ghetto
TTITLE4=My hoe's across the blue ridge mountains
TTITLE5=Rock salt and nails
TTITLE6=Help me make it through the night
TTITLE7=Long black veil
TTITLE8=I still miss someone
TTITLE9=San Francisco mabel joy
TTITLE10=Take me back to the sweet sunny south
TTITLE11=Hickory wind
TTITLE12=Will the circle be unbroken
TTITLE13=Tramp on the street
TTITLE14=Carry it on
TTITLE15=Gospel ship
TTITLE16=Little moses
TTITLE17=Banks of the Ohio
TTITLE18=Engine 43
TTITLE19=Pal of mine
EXTD=YEAR: 1987
EXTT0=
EXTT1=
EXTT2=
EXTT3=
EXTT4=
EXTT5=
EXTT6=
EXTT7=
EXTT8=
EXTT9=
EXTT10=
EXTT11=
EXTT12=
EXTT13=
EXTT14=
EXTT15=
EXTT16=
EXTT17=
EXTT18=
EXTT19=
PLAYORDER=
